<svg xmlns="http://www.w3.org/2000/svg" width="400" height="400" viewBox="0 0 400 400">
  <defs>
    <linearGradient id="spaceBg" x1="0%" y1="0%" x2="0%" y2="100%">
      <stop offset="0%" style="stop-color:#0F0F23;stop-opacity:1" />
      <stop offset="100%" style="stop-color:#1A1A2E;stop-opacity:1" />
    </linearGradient>
    <linearGradient id="metalGrad" x1="0%" y1="0%" x2="0%" y2="100%">
      <stop offset="0%" style="stop-color:#E8E8E8;stop-opacity:1" />
      <stop offset="50%" style="stop-color:#C0C0C0;stop-opacity:1" />
      <stop offset="100%" style="stop-color:#A0A0A0;stop-opacity:1" />
    </linearGradient>
    <linearGradient id="blueGlow" x1="0%" y1="0%" x2="0%" y2="100%">
      <stop offset="0%" style="stop-color:#00BFFF;stop-opacity:1" />
      <stop offset="100%" style="stop-color:#0080FF;stop-opacity:1" />
    </linearGradient>
    <radialGradient id="eyeGlow" cx="50%" cy="50%" r="50%">
      <stop offset="0%" style="stop-color:#00FFFF;stop-opacity:1" />
      <stop offset="100%" style="stop-color:#0080FF;stop-opacity:0.3" />
    </radialGradient>
  </defs>
  
  <!-- Space background -->
  <rect width="400" height="400" fill="url(#spaceBg)"/>
  
  <!-- Stars -->
  <circle cx="50" cy="50" r="1" fill="white" opacity="0.8"/>
  <circle cx="150" cy="30" r="1.5" fill="white" opacity="0.6"/>
  <circle cx="300" cy="80" r="1" fill="white" opacity="0.9"/>
  <circle cx="350" cy="120" r="1.2" fill="white" opacity="0.7"/>
  <circle cx="80" cy="150" r="1" fill="white" opacity="0.8"/>
  <circle cx="320" cy="200" r="1.3" fill="white" opacity="0.6"/>
  
  <!-- Robot shadow -->
  <ellipse cx="200" cy="380" rx="80" ry="15" fill="#000" opacity="0.3"/>
  
  <!-- Robot legs -->
  <rect x="170" y="320" width="20" height="50" fill="url(#metalGrad)" stroke="#808080" stroke-width="2" rx="5"/>
  <rect x="210" y="320" width="20" height="50" fill="url(#metalGrad)" stroke="#808080" stroke-width="2" rx="5"/>
  
  <!-- Robot feet -->
  <ellipse cx="180" cy="375" rx="18" ry="8" fill="url(#metalGrad)" stroke="#808080" stroke-width="2"/>
  <ellipse cx="220" cy="375" rx="18" ry="8" fill="url(#metalGrad)" stroke="#808080" stroke-width="2"/>
  
  <!-- Robot body -->
  <rect x="160" y="200" width="80" height="120" fill="url(#metalGrad)" stroke="#808080" stroke-width="3" rx="10"/>
  
  <!-- Chest panel -->
  <rect x="175" y="220" width="50" height="60" fill="url(#blueGlow)" stroke="#0080FF" stroke-width="2" rx="5" opacity="0.8"/>
  
  <!-- Chest details -->
  <rect x="185" y="235" width="30" height="3" fill="#00FFFF"/>
  <rect x="185" y="245" width="30" height="3" fill="#00FFFF"/>
  <rect x="185" y="255" width="30" height="3" fill="#00FFFF"/>
  <rect x="185" y="265" width="30" height="3" fill="#00FFFF"/>
  
  <!-- Robot arms -->
  <rect x="130" y="210" width="25" height="60" fill="url(#metalGrad)" stroke="#808080" stroke-width="2" rx="8"/>
  <rect x="245" y="210" width="25" height="60" fill="url(#metalGrad)" stroke="#808080" stroke-width="2" rx="8"/>
  
  <!-- Robot hands -->
  <circle cx="142" cy="280" r="12" fill="url(#metalGrad)" stroke="#808080" stroke-width="2"/>
  <circle cx="258" cy="280" r="12" fill="url(#metalGrad)" stroke="#808080" stroke-width="2"/>
  
  <!-- Hand details -->
  <rect x="138" y="275" width="8" height="2" fill="#00FFFF"/>
  <rect x="254" y="275" width="8" height="2" fill="#00FFFF"/>
  
  <!-- Robot head -->
  <rect x="170" y="140" width="60" height="60" fill="url(#metalGrad)" stroke="#808080" stroke-width="3" rx="15"/>
  
  <!-- Robot eyes -->
  <circle cx="185" cy="165" r="8" fill="url(#eyeGlow)" stroke="#00FFFF" stroke-width="2"/>
  <circle cx="215" cy="165" r="8" fill="url(#eyeGlow)" stroke="#00FFFF" stroke-width="2"/>
  
  <!-- Eye pupils -->
  <circle cx="185" cy="165" r="3" fill="#00FFFF"/>
  <circle cx="215" cy="165" r="3" fill="#00FFFF"/>
  
  <!-- Antenna -->
  <rect x="198" y="130" width="4" height="15" fill="url(#metalGrad)" stroke="#808080" stroke-width="1"/>
  <circle cx="200" cy="125" r="4" fill="#FF0000" stroke="#CC0000" stroke-width="1"/>
  
  <!-- Head details -->
  <rect x="180" y="180" width="40" height="3" fill="#00FFFF"/>
  <rect x="175" y="150" width="50" height="2" fill="#00FFFF" opacity="0.6"/>
  
  <!-- Shoulder joints -->
  <circle cx="155" cy="215" r="8" fill="url(#metalGrad)" stroke="#808080" stroke-width="2"/>
  <circle cx="245" cy="215" r="8" fill="url(#metalGrad)" stroke="#808080" stroke-width="2"/>
  
  <!-- Energy core -->
  <circle cx="200" cy="250" r="15" fill="url(#blueGlow)" stroke="#00FFFF" stroke-width="2" opacity="0.9"/>
  <circle cx="200" cy="250" r="8" fill="#00FFFF" opacity="0.7"/>
  
  <!-- Leg joints -->
  <circle cx="180" cy="315" r="6" fill="url(#metalGrad)" stroke="#808080" stroke-width="2"/>
  <circle cx="220" cy="315" r="6" fill="url(#metalGrad)" stroke="#808080" stroke-width="2"/>
</svg>