<svg xmlns="http://www.w3.org/2000/svg" width="400" height="400" viewBox="0 0 400 400">
  <defs>
    <linearGradient id="roadGrad" x1="0%" y1="0%" x2="0%" y2="100%">
      <stop offset="0%" style="stop-color:#87CEEB;stop-opacity:1" />
      <stop offset="70%" style="stop-color:#E0F6FF;stop-opacity:1" />
      <stop offset="100%" style="stop-color:#2F4F4F;stop-opacity:1" />
    </linearGradient>
    <linearGradient id="carGrad" x1="0%" y1="0%" x2="0%" y2="100%">
      <stop offset="0%" style="stop-color:#FF4500;stop-opacity:1" />
      <stop offset="50%" style="stop-color:#FF6347;stop-opacity:1" />
      <stop offset="100%" style="stop-color:#DC143C;stop-opacity:1" />
    </linearGradient>
    <linearGradient id="windowGrad" x1="0%" y1="0%" x2="0%" y2="100%">
      <stop offset="0%" style="stop-color:#87CEEB;stop-opacity:0.8" />
      <stop offset="100%" style="stop-color:#4682B4;stop-opacity:0.9" />
    </linearGradient>
    <radialGradient id="wheelGrad" cx="50%" cy="50%" r="50%">
      <stop offset="0%" style="stop-color:#2F2F2F;stop-opacity:1" />
      <stop offset="70%" style="stop-color:#1C1C1C;stop-opacity:1" />
      <stop offset="100%" style="stop-color:#000000;stop-opacity:1" />
    </radialGradient>
  </defs>
  
  <!-- Background -->
  <rect width="400" height="400" fill="url(#roadGrad)"/>
  
  <!-- Road -->
  <rect x="0" y="280" width="400" height="120" fill="#2F4F4F"/>
  
  <!-- Road lines -->
  <rect x="0" y="335" width="60" height="4" fill="white"/>
  <rect x="80" y="335" width="60" height="4" fill="white"/>
  <rect x="160" y="335" width="60" height="4" fill="white"/>
  <rect x="240" y="335" width="60" height="4" fill="white"/>
  <rect x="320" y="335" width="60" height="4" fill="white"/>
  
  <!-- Car shadow -->
  <ellipse cx="200" cy="320" rx="90" ry="15" fill="#000" opacity="0.3"/>
  
  <!-- Car body main -->
  <ellipse cx="200" cy="280" rx="85" ry="25" fill="url(#carGrad)" stroke="#B22222" stroke-width="2"/>
  
  <!-- Car roof -->
  <ellipse cx="200" cy="260" rx="60" ry="18" fill="url(#carGrad)" stroke="#B22222" stroke-width="2"/>
  
  <!-- Windshield -->
  <ellipse cx="200" cy="255" rx="45" ry="12" fill="url(#windowGrad)" stroke="#4682B4" stroke-width="1"/>
  
  <!-- Side windows -->
  <ellipse cx="170" cy="265" rx="15" ry="8" fill="url(#windowGrad)" stroke="#4682B4" stroke-width="1"/>
  <ellipse cx="230" cy="265" rx="15" ry="8" fill="url(#windowGrad)" stroke="#4682B4" stroke-width="1"/>
  
  <!-- Headlights -->
  <ellipse cx="125" cy="275" rx="8" ry="6" fill="#FFFACD" stroke="#FFD700" stroke-width="2"/>
  <ellipse cx="275" cy="275" rx="8" ry="6" fill="#FFFACD" stroke="#FFD700" stroke-width="2"/>
  
  <!-- Headlight beams -->
  <polygon points="117,275 80,270 80,280" fill="#FFFACD" opacity="0.6"/>
  <polygon points="283,275 320,270 320,280" fill="#FFFACD" opacity="0.6"/>
  
  <!-- Taillights -->
  <ellipse cx="125" cy="285" rx="4" ry="3" fill="#FF0000" stroke="#8B0000" stroke-width="1"/>
  <ellipse cx="275" cy="285" rx="4" ry="3" fill="#FF0000" stroke="#8B0000" stroke-width="1"/>
  
  <!-- Wheels -->
  <circle cx="155" cy="305" r="20" fill="url(#wheelGrad)" stroke="#000" stroke-width="2"/>
  <circle cx="245" cy="305" r="20" fill="url(#wheelGrad)" stroke="#000" stroke-width="2"/>
  
  <!-- Wheel rims -->
  <circle cx="155" cy="305" r="12" fill="#C0C0C0" stroke="#808080" stroke-width="1"/>
  <circle cx="245" cy="305" r="12" fill="#C0C0C0" stroke="#808080" stroke-width="1"/>
  
  <!-- Wheel spokes -->
  <line x1="155" y1="293" x2="155" y2="317" stroke="#808080" stroke-width="2"/>
  <line x1="143" y1="305" x2="167" y2="305" stroke="#808080" stroke-width="2"/>
  <line x1="245" y1="293" x2="245" y2="317" stroke="#808080" stroke-width="2"/>
  <line x1="233" y1="305" x2="257" y2="305" stroke="#808080" stroke-width="2"/>
  
  <!-- Car details -->
  <rect x="190" y="275" width="20" height="3" fill="#FFD700"/>
  <rect x="140" y="270" width="120" height="2" fill="#B22222" opacity="0.7"/>
  
  <!-- Grille -->
  <rect x="270" y="272" width="8" height="6" fill="#2F2F2F" stroke="#000" stroke-width="1"/>
  <rect x="272" y="274" width="4" height="2" fill="#C0C0C0"/>
  
  <!-- Door handles -->
  <ellipse cx="160" cy="275" rx="3" ry="2" fill="#C0C0C0" stroke="#808080" stroke-width="1"/>
  <ellipse cx="240" cy="275" rx="3" ry="2" fill="#C0C0C0" stroke="#808080" stroke-width="1"/>
  
  <!-- Exhaust -->
  <ellipse cx="120" cy="290" rx="4" ry="2" fill="#2F2F2F" stroke="#000" stroke-width="1"/>
  
  <!-- Speed lines -->
  <line x1="50" y1="250" x2="90" y2="255" stroke="white" stroke-width="2" opacity="0.6"/>
  <line x1="40" y1="270" x2="80" y2="275" stroke="white" stroke-width="2" opacity="0.6"/>
  <line x1="60" y1="290" x2="100" y2="295" stroke="white" stroke-width="2" opacity="0.6"/>
  
  <!-- Clouds -->
  <ellipse cx="100" cy="80" rx="25" ry="15" fill="white" opacity="0.8"/>
  <ellipse cx="300" cy="60" rx="30" ry="18" fill="white" opacity="0.8"/>
</svg>